<?xml version="1.0" encoding="UTF-8"?>
<svg id="Layer_1" data-name="Layer 1" xmlns="http://www.w3.org/2000/svg" viewBox="0 0 500 500">
  <defs>
    <style>
      .cls-1 {
        fill: #ffc;
      }

      .cls-2 {
        fill: #fdb714;
        opacity: .75;
      }

      .cls-3 {
        fill: #f1b24a;
      }
    </style>
  </defs>
  <path class="cls-2" d="M249.41,27.23l12.41,25.72c7.07,14.64,26.57,17.73,37.82,5.99l19.75-20.62,3.86,28.29c2.19,16.11,19.79,25.08,34.12,17.38l25.16-13.51-5.08,28.1c-2.89,16,11.08,29.97,27.08,27.08l28.1-5.08-13.51,25.16c-7.69,14.32,1.27,31.92,17.38,34.12l28.29,3.86-20.62,19.75c-11.74,11.24-8.65,30.75,5.99,37.82l25.72,12.41-25.72,12.41c-14.64,7.07-17.73,26.57-5.99,37.82l20.62,19.75-28.29,3.86c-16.11,2.19-25.08,19.79-17.38,34.12l13.51,25.16-28.1-5.08c-16-2.89-29.97,11.08-27.08,27.08l5.08,28.1-25.16-13.51c-14.32-7.69-31.92,1.27-34.12,17.38l-3.86,28.29-19.75-20.62c-11.24-11.74-30.75-8.65-37.82,5.99l-12.41,25.72-12.41-25.72c-7.07-14.64-26.57-17.73-37.82-5.99l-19.75,20.62-3.86-28.29c-2.19-16.11-19.79-25.08-34.12-17.38l-25.16,13.51,5.08-28.1c2.89-16-11.08-29.97-27.08-27.08l-28.1,5.08,13.51-25.16c7.69-14.32-1.27-31.92-17.38-34.12l-28.29-3.86,20.62-19.75c11.74-11.24,8.65-30.75-5.99-37.82l-25.72-12.41,25.72-12.41c14.64-7.07,17.73-26.57,5.99-37.82l-20.62-19.75,28.29-3.86c16.11-2.19,25.08-19.79,17.38-34.12l-13.51-25.16,28.1,5.08c16,2.89,29.97-11.08,27.08-27.08l-5.08-28.1,25.16,13.51c14.32,7.69,31.92-1.27,34.12-17.38l3.86-28.29,19.75,20.62c11.24,11.74,30.75,8.65,37.82-5.99l12.41-25.72Z"/>
  <circle class="cls-3" cx="249.41" cy="253.69" r="184.35"/>
  <g>
    <path class="cls-1" d="M159.68,138.81l-.2-1.87,3.11-.52v-23.21l-3.11-.52.2-1.87,5.5.12,16.87-.12.4,7.66h-2.07l-2.35-5.18-9.33-.12v9.81l4.62-.16,1.59-4.27h1.99l-.4,5.46.4,5.62h-1.99l-1.59-4.23-4.62-.16v11.2l9.77-.12,2.71-5.38h2.11l-1.32,7.85-16.79-.12-5.5.12Z"/>
    <path class="cls-1" d="M187.76,128.88v-15.67l-3.11-.52.2-1.87,5.38.12,6.42-.12.2,1.87-2.91.52v15.63c0,4.78,2.07,7.62,6.3,7.62s6.26-2.83,6.26-7.66v-15.59l-3.35-.52.2-1.87,5.1.12,4.54-.12.2,1.87-3.15.52v15.47c0,5.3-2.11,8.93-10.09,10.81-9.01,0-12.2-4.27-12.2-10.61Z"/>
    <path class="cls-1" d="M223.77,138.81l-.2-1.87,2.51-.52,9.21-25.04,5.06-1.08,9.45,26.2,2.75.44-.2,1.87-7.14-.12-4.78.12-.2-1.87,2.91-.52-2.27-6.66h-9.41l-2.23,6.66,3.11.52-.2,1.87-4.35-.12-4.03.12ZM232.22,127.56h7.89l-3.51-10.49-.16-2.27-4.23,12.76Z"/>
    <path class="cls-1" d="M254.24,138.81l-.2-1.91,3.11-.52v-23.17l-3.11-.52.2-1.87,5.98.12,5.94-.12.2,1.87-3.11.52v23.17l3.11.52-.2,1.91-5.94-.12-5.98.12Z"/>
    <path class="cls-1" d="M277.48,138.81l-.2-1.87,2.51-.52,9.21-25.04,5.06-1.08,9.45,26.2,2.75.44-.2,1.87-7.14-.12-4.78.12-.2-1.87,2.91-.52-2.27-6.66h-9.41l-2.23,6.66,3.11.52-.2,1.87-4.35-.12-4.03.12ZM285.94,127.56h7.89l-3.51-10.49-.16-2.27-4.23,12.76Z"/>
    <path class="cls-1" d="M306.92,129.83c0-6.14,4.62-9.29,10.17-10.76,2.63,0,4.94.84,6.3,2.03v5.06h-4.62l-.84-4.11c-.44-.32-.8-.44-1.47-.44-1.95,0-3.59,2.43-3.59,6.58s2.27,7.14,5.94,7.14c1.51,0,2.95-.72,3.99-1.44l1.04,1.83c-1.91,1.52-4.11,2.71-7.26,3.63-5.66,0-9.65-3.71-9.65-9.53Z"/>
    <path class="cls-1" d="M334.95,139.36c-4.19,0-6.3-2.07-6.3-6.3v-10.49h-3.63v-.72l1.55-1.59h2.11v-2.75l3.63-2.95h1.87v5.86h5.38v2.15h-5.34v10.69c0,1.47.92,2.47,1.99,2.47.96,0,1.79-.24,3.19-1l.84,1.79-5.3,2.83Z"/>
    <path class="cls-1" d="M176.13,186.66l-.2-1.87,3.11-.52v-23.21l-3.11-.52.2-1.87,5.5.12,6.42-.12.2,1.87-3.11.52v23.25l8.97-.12,3.03-5.62h1.87l-1.43,8.09-15.95-.16-5.5.16Z"/>
    <path class="cls-1" d="M200.54,186.66l-.2-1.87,2.31-.48v-13.92l-2.31.12-.2-1.87,5.62-1.12,2.47-.12v16.91l2.39.48-.2,1.87-4.94-.12-4.94.12ZM203.97,164.13l-1.32-.28-.28-2.67.48-2.27,3.79-.24,1.28.24.28,2.71-.52,2.23-3.71.28Z"/>
    <path class="cls-1" d="M221.16,187.22c-4.19,0-6.3-2.07-6.3-6.3v-10.49h-3.63v-.72l1.55-1.59h2.11v-2.75l3.63-2.95h1.87v5.86h5.38v2.15h-5.34v10.69c0,1.47.92,2.47,1.99,2.47.96,0,1.79-.24,3.19-1l.84,1.79-5.3,2.83Z"/>
    <path class="cls-1" d="M244.36,176.77h-11.56c.24,3.71,2.23,6.42,5.66,6.42,1.87,0,3.83-.84,4.98-1.59l.88,1.79c-2.11,1.83-4.39,2.83-7.58,3.83-5.5,0-9.69-3.75-9.69-9.53,0-4.79,2.23-8.85,9.57-10.77,5.58,0,7.73,3.47,7.73,7.66v2.19ZM238.78,174.46c0-3.03-.6-5.02-2.79-5.02-1.87,0-2.99,1.79-3.19,5.38l5.98-.36Z"/>
    <path class="cls-1" d="M246.52,186.66l-.2-1.87,2.35-.48v-13.83l-2.35.16-.2-1.95,5.22-1.16,2.15-.12.44,6.18,4.23-6.46h3.71v5.46h-4.07c-.96.44-1.95,1.43-2.99,2.63l-.56.64v8.41l4.23.44-.2,1.95-6.78-.12-4.98.12Z"/>
    <path class="cls-1" d="M269.69,187.22c-3.67,0-6.3-2.07-6.3-5.34,0-1.71.72-3.03,1.79-4.07l8.85-2.83v-2.27c0-2.43-.64-3.15-2.03-3.15-.88,0-1.75.24-2.43.6l-.6,3.51h-4.98v-3.35l8.29-3.39c5.58,0,7.46,1.48,7.46,6.14v7.74c0,1.59.16,2.31.52,2.99h1.91l.28,1.87-6.9,1.4-1.28-3.19-4.58,3.35ZM273,183.03l1.04-.72v-5.5l-4.23,1.67c-.6.64-.88,1.71-.88,2.63,0,1.91,1.08,2.71,2.03,2.71.8,0,1.52-.48,2.03-.8Z"/>
    <path class="cls-1" d="M283.57,177.69c0-6.14,4.62-9.29,10.17-10.77,2.63,0,4.94.84,6.3,2.03v5.06h-4.62l-.84-4.11c-.44-.32-.8-.44-1.47-.44-1.95,0-3.59,2.43-3.59,6.58s2.27,7.14,5.94,7.14c1.51,0,2.95-.72,3.99-1.44l1.04,1.83c-1.91,1.52-4.11,2.71-7.26,3.63-5.66,0-9.65-3.71-9.65-9.53Z"/>
    <path class="cls-1" d="M304.94,195.99v-5.34h4.71l3.95-5.38-3.51,1.12-6.42-16.63-1.99-.4.2-1.87,5.3.12,4.55-.12.2,1.87-2.15.4,3.79,10.33.52,3.43,4.19-13.68-2.35-.44.2-1.91,4.19.12,3.39-.12.2,1.91-2.35.44-5.86,15.79-4.55,10.37h-6.18Z"/>
  </g>
  <g>
    <path class="cls-1" d="M160.18,235.48c0-9.53,6.1-13.76,16.75-15.51,3.71,0,6.9,1.2,9.13,2.39v7.74h-3.15l-1.28-3.95c-1.04-1.59-2.55-3.19-5.82-3.19-4.27,0-7.66,4.11-7.66,11.12s3.11,12.24,7.78,12.24c2.75,0,4.31-1.28,5.98-2.99l1.83-4.83h2.95l-.6,8.09c-2.63,1.12-5.74,1.99-10.84,2.71-7.93,0-15.07-4.75-15.07-13.83Z"/>
    <path class="cls-1" d="M188.3,239.46c0-7.06,5.38-9.49,11.04-10.8,5.1,0,9.13,3.71,9.13,9.69,0,7.06-5.42,9.49-11.2,10.84-4.98,0-8.97-3.75-8.97-9.73ZM201.02,240.74c0-6.86-1.63-9.49-3.15-9.49-1.32,0-2.39,1.24-2.39,5.82,0,6.86,1.67,9.53,3.19,9.53,1.32,0,2.35-1.28,2.35-5.86Z"/>
    <path class="cls-1" d="M210.07,253.7v-1.04l4.94-2.63c-2.75-.56-4.23-2.51-4.23-4.67v-1.2l4.39-2.43c-2.59-1.2-4.15-3.47-4.15-6.06.04-4.11,3.59-5.62,9.29-7.02,4.47,0,6.18,1.63,7.5,3.83l1.59-3.83h2.95v4.78h-3.67l-.36.36c.12.48.2.96.2,1.44-.08,4.31-3.47,5.82-9.21,7.38-.88,0-1.91-.08-2.67-.36l-.76,1.12c0,1.08.88,1.4,2.27,1.4h7.38c3.35,0,5.62,2.07,5.62,4.86,0,4.27-5.14,6.5-11.68,8.73-4.82,0-9.41-1.12-9.41-4.67ZM225.38,252.26c0-1.16-.76-2.11-2.39-2.11h-6.02c-.6.4-.96,1.16-.96,1.79,0,1.51.96,3.03,4.82,3.03,3.43,0,4.54-1.6,4.54-2.71ZM222.31,236.19c0-3.39-1.12-5.14-2.79-5.14s-2.35,1.83-2.35,4.07c0,3.43,1.12,5.14,2.83,5.14s2.31-1.79,2.31-4.07Z"/>
    <path class="cls-1" d="M234.32,248.64l-.2-2.19,1.99-.52v-13.4l-2.15.08-.2-2.27,6.3-1.08,2.83-.12v3.27l6.14-3.75c4.39,0,6.34,1.16,6.34,5.94v11.32l1.99.52-.2,2.19-5.18-.12-4.78.12-.2-2.19,1.4-.52v-10.65c0-1.28-.68-1.91-1.79-1.91-1,0-2.07.64-3.03,1.32l-.68.48v10.77l1.4.52-.2,2.19-4.58-.12-5.18.12Z"/>
    <path class="cls-1" d="M259.64,248.64l-.2-2.19,1.99-.52v-13.56l-1.99.08-.2-2.19,6.22-1,2.75-.12v16.79l1.99.52-.2,2.19-5.18-.12-5.18.12ZM263.11,226.55l-1.47-.32-.28-2.95.56-2.51,4.35-.28,1.43.28.32,2.99-.6,2.47-4.31.32Z"/>
    <path class="cls-1" d="M281.41,249.19c-4.78,0-7.18-2.23-7.18-6.9v-9.73h-3.43v-.72l1.63-1.75h1.79v-2.83l4.39-3.19h2.35v6.1h4.98v2.39h-4.94v10.05c0,1.47.8,2.51,1.95,2.51,1,0,1.83-.24,3.19-1l.96,2.07-5.7,2.99Z"/>
    <path class="cls-1" d="M288.51,248.64l-.2-2.19,1.99-.52v-13.56l-1.99.08-.2-2.19,6.22-1,2.75-.12v16.79l1.99.52-.2,2.19-5.18-.12-5.18.12ZM291.98,226.55l-1.47-.32-.28-2.95.56-2.51,4.35-.28,1.43.28.32,2.99-.6,2.47-4.31.32Z"/>
    <path class="cls-1" d="M308.01,249.19l-7.26-17.3-1.67-.52.2-2.15,5.78.12,4.79-.12.2,2.15-1.83.52,3.31,9.37.32,3.51,4.15-12.88-1.91-.52.2-2.15,3.87.08,2.99-.08.2,2.15-2.19.52-5.9,16.23-5.22,1.08Z"/>
    <path class="cls-1" d="M338.83,238.91h-11.2c.32,3.03,2.15,5.54,5.06,5.54,2.07,0,4.07-.88,4.98-1.52l1.08,1.95c-2.31,2.15-4.39,3.11-8.01,4.31-5.9,0-10.01-3.95-10.01-9.45,0-4.07,1.4-8.69,9.97-11.08,5.74,0,8.13,3.55,8.13,7.74v2.51ZM332.3,236.43c0-3.03-.56-4.94-2.19-4.94s-2.35,1.67-2.51,5.3l4.71-.36Z"/>
    <path class="cls-1" d="M141.86,294.46l-.88-7.18h3.83l1.32,3.79c1.59,1.83,3.31,2.79,5.1,2.79,2.39,0,3.91-1.4,3.91-3.63,0-1.63-1-2.91-3.15-3.99l-4.94-2.55c-3.95-2.03-5.66-4.27-5.66-7.38,0-4.03,3.67-6.9,10.88-8.49,3.07,0,6.42.88,8.89,2.31v6.78h-3.35l-1.2-3.71c-1.43-1.47-2.95-2.19-4.67-2.19-2.47,0-4.15,1.16-4.15,2.87,0,1.44.8,2.43,2.71,3.43l5.54,2.83c4.58,2.35,6.1,4.27,6.1,7.7,0,4.47-3.19,7.06-11.56,9.33-2.75,0-5.98-1-8.73-2.71Z"/>
    <path class="cls-1" d="M164.35,287.32c0-7.06,5.38-9.49,11.04-10.8,5.1,0,9.13,3.71,9.13,9.69,0,7.06-5.42,9.49-11.2,10.84-4.98,0-8.97-3.75-8.97-9.73ZM177.07,288.6c0-6.86-1.63-9.49-3.15-9.49-1.32,0-2.39,1.24-2.39,5.82,0,6.86,1.67,9.53,3.19,9.53,1.32,0,2.35-1.28,2.35-5.86Z"/>
    <path class="cls-1" d="M193.46,297.05l-7.26-17.3-1.67-.52.2-2.15,5.78.12,4.79-.12.2,2.15-1.83.52,3.31,9.37.32,3.51,4.15-12.88-1.91-.52.2-2.15,3.87.08,2.99-.08.2,2.15-2.19.52-5.9,16.23-5.22,1.08Z"/>
    <path class="cls-1" d="M224.28,286.76h-11.2c.32,3.03,2.15,5.54,5.06,5.54,2.07,0,4.07-.88,4.98-1.52l1.08,1.95c-2.31,2.15-4.39,3.11-8.01,4.31-5.9,0-10.01-3.95-10.01-9.45,0-4.07,1.4-8.69,9.97-11.08,5.74,0,8.13,3.55,8.13,7.74v2.51ZM217.75,284.29c0-3.03-.56-4.94-2.19-4.94s-2.35,1.67-2.51,5.3l4.71-.36Z"/>
    <path class="cls-1" d="M226.28,296.49l-.2-2.19,2.07-.52v-13.4l-2.07.08-.2-2.27,5.54-1.08,2.47-.16.72,6.78,3.99-7.02h4.03v6.46h-4.75c-1.04.56-1.55,1.4-2.59,2.47l-.36.4v7.74l4.31.52-.2,2.19-7.42-.12-5.34.12Z"/>
    <path class="cls-1" d="M261.53,286.76h-11.2c.32,3.03,2.15,5.54,5.06,5.54,2.07,0,4.07-.88,4.98-1.52l1.08,1.95c-2.31,2.15-4.39,3.11-8.01,4.31-5.9,0-10.01-3.95-10.01-9.45,0-4.07,1.4-8.69,9.97-11.08,5.74,0,8.13,3.55,8.13,7.74v2.51ZM254.99,284.29c0-3.03-.56-4.94-2.19-4.94s-2.35,1.67-2.51,5.3l4.71-.36Z"/>
    <path class="cls-1" d="M263.81,296.49l-.2-2.19,1.99-.52v-13.56l-1.99.08-.2-2.19,6.22-1,2.75-.12v16.79l1.99.52-.2,2.19-5.18-.12-5.18.12ZM267.27,274.4l-1.47-.32-.28-2.95.56-2.51,4.35-.28,1.43.28.32,2.99-.6,2.47-4.31.32Z"/>
    <path class="cls-1" d="M275.57,301.55v-1.04l4.94-2.63c-2.75-.56-4.23-2.51-4.23-4.67v-1.2l4.39-2.43c-2.59-1.2-4.15-3.47-4.15-6.06.04-4.11,3.59-5.62,9.29-7.02,4.47,0,6.18,1.63,7.5,3.83l1.59-3.83h2.95v4.78h-3.67l-.36.36c.12.48.2.96.2,1.44-.08,4.31-3.47,5.82-9.21,7.38-.88,0-1.91-.08-2.67-.36l-.76,1.12c0,1.08.88,1.39,2.27,1.39h7.38c3.35,0,5.62,2.07,5.62,4.87,0,4.27-5.14,6.5-11.68,8.73-4.82,0-9.41-1.12-9.41-4.67ZM290.88,300.12c0-1.16-.76-2.11-2.39-2.11h-6.02c-.6.4-.96,1.16-.96,1.79,0,1.51.96,3.03,4.82,3.03,3.43,0,4.54-1.59,4.54-2.71ZM287.81,284.05c0-3.39-1.12-5.14-2.79-5.14s-2.35,1.83-2.35,4.07c0,3.43,1.12,5.14,2.83,5.14s2.31-1.79,2.31-4.07Z"/>
    <path class="cls-1" d="M299.82,296.49l-.2-2.19,1.99-.52v-13.4l-2.15.08-.2-2.27,6.3-1.08,2.83-.12v3.27l6.14-3.75c4.39,0,6.34,1.16,6.34,5.94v11.32l1.99.52-.2,2.19-5.18-.12-4.78.12-.2-2.19,1.4-.52v-10.65c0-1.28-.68-1.91-1.79-1.91-1,0-2.07.64-3.03,1.32l-.68.48v10.77l1.4.52-.2,2.19-4.58-.12-5.18.12Z"/>
    <path class="cls-1" d="M339.09,305.82v-6.26h5.5l4.03-4.98-4.78,1.59-6.34-16.47h-4.35v10.77c0,1.47.8,2.51,1.95,2.51.92,0,1.67-.2,2.79-.8l.96,2.07-5.3,2.79c-4.35,0-7.18-2.23-7.18-5.7v-11.64h-3.43v-.72l1.63-1.67h1.79v-2.19l4.39-3.19h2.39v5.18h13.4l.2,2.15-1.83.4,3.51,9.45.6,3.87,3.83-13.24-1.91-.44.2-2.23,3.87.12,3.43-.12.2,2.23-2.19.44-5.66,15.47-4.58,10.61h-7.1Z"/>
  </g>
  <g>
    <path class="cls-1" d="M186.7,358.46l-.2-1.87,3.11-.52v-23.21l-3.11-.52.2-1.87,5.5.12,16.87-.12.4,7.66h-2.07l-2.35-5.18-9.33-.12v9.81l4.62-.16,1.59-4.27h1.99l-.4,5.46.4,5.62h-1.99l-1.59-4.23-4.62-.16v11.2l9.77-.12,2.71-5.38h2.11l-1.32,7.85-16.79-.12-5.5.12Z"/>
    <path class="cls-1" d="M220.6,359.02c-4.19,0-6.3-2.07-6.3-6.3v-10.49h-3.63v-.72l1.55-1.59h2.11v-2.75l3.63-2.95h1.87v5.86h5.38v2.15h-5.34v10.69c0,1.47.92,2.47,1.99,2.47.96,0,1.79-.24,3.19-1l.84,1.79-5.3,2.83Z"/>
    <path class="cls-1" d="M226.74,358.46l-.2-1.87,2.31-.48v-23.05l-2.39.08-.2-1.91,5.66-1.12,2.51-.12v12.48l6.02-3.75c4.67,0,6.18,1.44,6.18,6.34v11.04l2.39.48-.2,1.87-4.94-.12-4.39.12-.2-1.87,1.63-.48v-10.92c0-1.59-.8-2.35-2.11-2.35-1.08,0-2.31.76-3.51,1.52l-.88.6v11.16l1.71.48-.2,1.87-4.27-.12-4.94.12Z"/>
    <path class="cls-1" d="M251.42,358.46l-.2-1.87,2.31-.48v-13.92l-2.31.12-.2-1.87,5.62-1.12,2.47-.12v16.91l2.39.48-.2,1.87-4.94-.12-4.94.12ZM254.85,335.94l-1.32-.28-.28-2.67.48-2.27,3.79-.24,1.28.24.28,2.71-.52,2.23-3.71.28Z"/>
    <path class="cls-1" d="M262.91,349.49c0-6.14,4.62-9.29,10.17-10.76,2.63,0,4.94.84,6.3,2.03v5.06h-4.62l-.84-4.11c-.44-.32-.8-.44-1.47-.44-1.95,0-3.59,2.43-3.59,6.58s2.27,7.14,5.94,7.14c1.51,0,2.95-.72,3.99-1.44l1.04,1.83c-1.91,1.52-4.11,2.71-7.26,3.63-5.66,0-9.65-3.71-9.65-9.53Z"/>
    <path class="cls-1" d="M288.31,359.02c-3.67,0-6.3-2.07-6.3-5.34,0-1.71.72-3.03,1.79-4.07l8.85-2.83v-2.27c0-2.43-.64-3.15-2.03-3.15-.88,0-1.75.24-2.43.6l-.6,3.51h-4.98v-3.35l8.29-3.39c5.58,0,7.46,1.48,7.46,6.14v7.74c0,1.59.16,2.31.52,2.99h1.91l.28,1.87-6.9,1.4-1.28-3.19-4.58,3.35ZM291.62,354.84l1.04-.72v-5.5l-4.23,1.67c-.6.64-.88,1.71-.88,2.63,0,1.91,1.08,2.71,2.03,2.71.8,0,1.52-.48,2.03-.8Z"/>
    <path class="cls-1" d="M302.83,358.46l-.2-1.87,2.31-.48v-23.01l-2.39.08-.2-1.95,5.66-1.12,2.51-.12v26.12l2.39.48-.2,1.87-4.94-.12-4.94.12Z"/>
    <path class="cls-1" d="M169.34,406.32l-.2-1.87,2.51-.52,9.21-25.04,5.06-1.08,9.45,26.2,2.75.44-.2,1.87-7.14-.12-4.78.12-.2-1.87,2.91-.52-2.27-6.66h-9.41l-2.23,6.66,3.11.52-.2,1.87-4.35-.12-4.03.12ZM177.79,395.07h7.89l-3.51-10.49-.16-2.27-4.23,12.76Z"/>
    <path class="cls-1" d="M199.8,406.32l-.2-1.91,3.11-.52v-23.17l-3.11-.52.2-1.87,5.98.12,5.94-.12.2,1.87-3.11.52v23.17l3.11.52-.2,1.91-5.94-.12-5.98.12Z"/>
    <path class="cls-1" d="M226.28,396.39v-15.67l-3.11-.52.2-1.87,5.38.12,6.42-.12.2,1.87-2.91.52v15.63c0,4.78,2.07,7.62,6.3,7.62s6.26-2.83,6.26-7.66v-15.59l-3.35-.52.2-1.87,5.1.12,4.54-.12.2,1.87-3.15.52v15.47c0,5.3-2.11,8.93-10.09,10.81-9.01,0-12.2-4.27-12.2-10.61Z"/>
    <path class="cls-1" d="M252.72,405.32l-.76-5.66h2.67l1.08,3.03c.96.96,2.35,1.71,3.55,1.71,1.59,0,2.67-.76,2.67-2.27,0-1.12-.4-1.71-2.43-2.75l-2.99-1.48c-2.43-1.24-3.91-2.79-3.91-5.1,0-2.83,1.75-4.74,7.97-6.22,3.31,0,5.14.84,6.1,1.44v5.06h-2.35l-.92-2.75c-.76-.76-1.71-1.4-2.99-1.4-1.79,0-2.79.96-2.79,2.11,0,1.08.6,1.71,2.99,2.83l2.91,1.44c2.43,1.16,3.79,2.71,3.79,5.18,0,3.63-2.55,5.18-8.21,6.38-1.56,0-4.31-.6-6.38-1.55Z"/>
    <path class="cls-1" d="M276.01,406.88c-3.67,0-6.3-2.07-6.3-5.34,0-1.71.72-3.03,1.79-4.07l8.85-2.83v-2.27c0-2.43-.64-3.15-2.03-3.15-.88,0-1.75.24-2.43.6l-.6,3.51h-4.98v-3.35l8.29-3.39c5.58,0,7.46,1.48,7.46,6.14v7.74c0,1.59.16,2.31.52,2.99h1.91l.28,1.87-6.9,1.4-1.28-3.19-4.58,3.35ZM279.32,402.69l1.04-.72v-5.5l-4.23,1.67c-.6.64-.88,1.71-.88,2.63,0,1.91,1.08,2.71,2.03,2.71.8,0,1.52-.48,2.03-.8Z"/>
    <path class="cls-1" d="M289.65,411.06v-.92l4.71-2.91c-2.75-.76-3.75-2.43-3.75-4.47v-.8l4.23-2.55c-2.55-1.08-4.15-3.23-4.15-5.74.04-3.83,3.11-5.7,8.69-7.1,3.71,0,5.62,1.36,6.94,3.27l1.79-3.27h2.75v4.15h-3.15l-.76.48c.16.52.28,1.08.28,1.63-.04,3.95-3.03,5.82-8.65,7.3-.72,0-1.56-.04-2.19-.24l-1.32,1.67c0,.96.76,1.36,1.99,1.36h7.34c3.43,0,5.46,1.91,5.46,4.59,0,3.87-4.75,6.46-11.08,8.53-5.18,0-9.13-1.4-9.13-4.98ZM304.84,409.55c0-1.28-.88-2.11-2.95-2.11h-5.78c-1.16,1.16-1.44,1.87-1.44,2.51,0,1.63,1.4,3.11,5.02,3.11,3.35,0,5.14-1.79,5.14-3.51ZM302.01,394.04c0-2.87-1.04-5.26-3.35-5.26-1.83,0-2.75,1.75-2.75,4.11,0,2.79,1,5.06,3.35,5.06,1.83,0,2.75-1.63,2.75-3.91Z"/>
    <path class="cls-1" d="M328.8,396.43h-11.56c.24,3.71,2.23,6.42,5.66,6.42,1.87,0,3.83-.84,4.98-1.59l.88,1.79c-2.11,1.83-4.39,2.83-7.58,3.83-5.5,0-9.69-3.75-9.69-9.53,0-4.79,2.23-8.85,9.57-10.77,5.58,0,7.73,3.47,7.73,7.66v2.19ZM323.22,394.12c0-3.03-.6-5.02-2.79-5.02-1.87,0-2.99,1.79-3.19,5.38l5.98-.36Z"/>
  </g>
</svg>